<?xml version="1.0" standalone="no"?>
<svg version="1.0" xmlns="http://www.w3.org/2000/svg"
 width="500.000000pt" height="500.000000pt" viewBox="0 0 500.000000 500.000000"
 preserveAspectRatio="xMidYMid meet">

<g transform="translate(0.000000,500.000000) scale(0.100000,-0.100000)"
fill="#000000" stroke="none">
<path d="M2355 4990 c-3 -5 -31 -10 -61 -10 -128 0 -350 -45 -572 -116 -758
-243 -1360 -853 -1596 -1614 -53 -170 -106 -449 -106 -554 0 -25 -4 -48 -10
-51 -12 -8 -14 -282 -2 -289 5 -3 12 -45 15 -93 11 -159 62 -390 129 -588 244
-712 829 -1292 1543 -1530 196 -65 485 -125 607 -125 26 0 50 -4 53 -10 4 -6
63 -10 145 -10 82 0 141 4 145 10 3 6 30 10 60 10 81 0 344 47 476 86 185 53
283 92 444 174 255 129 450 271 647 472 360 366 593 820 677 1318 17 102 31
206 31 232 0 26 4 50 10 53 6 4 10 63 10 145 0 82 -4 141 -10 145 -6 3 -10 26
-10 51 0 122 -58 411 -121 599 -225 679 -743 1232 -1411 1509 -199 82 -592
176 -739 176 -32 0 -61 5 -64 10 -4 6 -63 10 -145 10 -82 0 -141 -4 -145 -10z
m-926 -1166 c59 -23 85 -82 78 -173 -5 -76 -15 -100 -52 -129 -32 -25 -32 -38
1 -54 45 -22 64 -72 64 -166 0 -47 -6 -96 -14 -115 -14 -35 -52 -74 -62 -64
-4 3 -13 0 -21 -8 -11 -11 -41 -15 -118 -15 -93 0 -105 2 -115 19 -6 13 -10
143 -10 355 0 291 2 337 16 350 22 22 178 22 233 0z m344 2 c3 -8 6 -151 6
-318 l1 -303 27 -24 c21 -18 34 -22 62 -17 67 11 65 3 71 354 l5 317 35 0 35
0 3 -284 c1 -163 -2 -308 -8 -340 -11 -58 -41 -101 -72 -101 -10 0 -18 -4 -18
-8 0 -4 -26 -9 -57 -10 -44 -1 -67 3 -98 21 -68 38 -74 71 -75 413 0 213 3
293 12 302 17 17 65 15 71 -2z m702 -5 c48 -31 60 -61 60 -154 0 -67 -4 -90
-15 -97 -8 -5 -11 -10 -7 -10 14 0 -13 -40 -27 -40 -12 0 -32 -29 -24 -35 79
-52 86 -67 86 -193 1 -104 -16 -140 -78 -173 -47 -26 -220 -27 -245 -3 -14 14
-15 55 -13 360 3 293 5 346 18 355 21 14 220 6 245 -10z m486 9 c73 -20 107
-97 93 -210 -6 -45 -13 -61 -40 -87 -42 -39 -43 -55 -3 -70 18 -7 29 -17 27
-25 -3 -7 2 -18 11 -24 20 -15 27 -125 12 -195 -21 -95 -63 -119 -210 -119
-62 0 -101 4 -109 12 -9 9 -12 103 -12 360 0 320 1 348 18 357 22 13 166 14
213 1z m359 -9 c6 -13 10 -137 10 -335 l0 -315 98 -3 c94 -3 97 -4 100 -27 2
-13 -2 -28 -10 -32 -18 -12 -239 -11 -258 1 -13 8 -15 60 -18 350 -2 228 1
346 8 360 14 26 56 26 70 1z m664 3 c12 -12 13 -20 6 -35 -9 -16 -22 -19 -98
-19 -48 0 -93 -4 -100 -8 -9 -6 -12 -38 -10 -123 l3 -114 72 -3 c78 -3 106
-19 86 -50 -7 -13 -30 -18 -84 -22 l-74 -5 0 -135 0 -135 95 -3 c103 -3 129
-16 109 -53 -9 -17 -23 -19 -139 -19 -102 0 -132 3 -144 15 -13 13 -15 63 -15
350 -1 409 -15 375 158 375 95 0 123 -3 135 -16z m-809 -954 c9 -10 14 -24 10
-29 -3 -6 -1 -11 4 -11 19 0 12 -30 -14 -56 l-25 -24 -559 2 c-547 3 -561 3
-575 23 -22 28 -20 71 4 95 20 20 32 20 579 20 536 -1 559 -1 576 -20z m363
-3 c12 -12 51 -111 90 -225 39 -112 73 -206 76 -209 13 -14 28 20 100 222 42
116 83 215 92 222 26 19 78 16 105 -6 40 -32 31 -74 -80 -378 l-103 -282 106
-291 c68 -187 106 -306 106 -331 0 -53 -34 -89 -85 -89 -65 0 -83 30 -164 273
-66 197 -84 238 -97 225 -2 -3 -39 -105 -82 -228 -44 -123 -88 -234 -100 -247
-26 -30 -80 -31 -110 -3 -38 36 -29 78 83 384 58 157 105 295 105 307 0 12
-43 139 -95 282 -107 294 -115 340 -69 376 37 29 94 28 122 -2z m-1870 -11
c55 -24 116 -93 133 -153 9 -29 14 -95 14 -168 0 -112 -2 -124 -28 -178 -21
-42 -39 -63 -68 -80 -21 -12 -39 -27 -39 -34 0 -6 19 -22 42 -35 92 -50 122
-139 116 -342 -3 -119 -7 -149 -26 -191 -30 -65 -73 -108 -136 -137 -46 -20
-69 -23 -238 -26 l-188 -4 -30 30 -30 30 0 627 0 627 30 30 30 30 188 -4 c152
-3 195 -7 230 -22z m1106 -245 c85 -42 156 -112 198 -198 31 -64 33 -74 33
-173 0 -102 -1 -109 -38 -182 -62 -126 -170 -205 -308 -227 -270 -43 -511 198
-468 469 25 159 124 276 284 333 38 13 73 17 141 14 79 -2 100 -7 158 -36z
m398 -928 c37 -43 25 -108 -21 -121 -14 -4 -266 -7 -560 -7 -405 0 -535 3
-538 12 -2 7 -10 10 -18 7 -7 -3 -18 4 -24 15 -22 40 -8 89 29 104 8 3 263 6
566 6 513 1 552 0 566 -16z m618 -454 c0 -14 7 -19 25 -19 60 0 88 -85 42
-128 -15 -15 -33 -20 -60 -19 l-37 2 0 104 c0 91 2 102 15 91 8 -7 15 -21 15
-31z m-2530 6 c0 -19 5 -25 23 -25 43 0 67 -27 67 -75 0 -53 -24 -74 -82 -72
l-38 1 0 98 c0 80 3 98 15 98 9 0 15 -9 15 -25z m380 0 c0 -19 5 -25 23 -25
40 0 67 -27 67 -69 0 -55 -19 -75 -74 -77 l-46 -2 0 99 c0 81 3 99 15 99 9 0
15 -9 15 -25z m190 -4 c0 -24 3 -28 20 -24 11 3 31 -2 45 -11 19 -13 25 -25
25 -54 0 -56 -19 -76 -74 -78 l-46 -2 0 99 c0 81 3 99 15 99 10 0 15 -10 15
-29z m190 -50 c0 -44 5 -83 10 -86 13 -8 13 -35 1 -35 -5 0 -17 7 -25 16 -23
22 -23 184 -1 184 12 0 15 -15 15 -79z m310 54 c0 -19 5 -25 23 -25 40 0 67
-27 67 -69 0 -55 -19 -75 -74 -77 l-46 -2 0 99 c0 81 3 99 15 99 9 0 15 -9 15
-25z m-880 -91 c0 -54 0 -55 28 -52 26 3 27 6 30 61 4 83 26 71 30 -16 2 -53
0 -67 -11 -67 -8 0 -28 -3 -44 -6 -44 -9 -63 15 -63 80 0 29 3 56 6 59 15 15
24 -8 24 -59z m762 49 c10 -9 18 -27 18 -40 0 -21 -4 -23 -50 -23 -27 0 -50
-4 -50 -8 0 -18 26 -32 60 -32 33 -1 34 -2 16 -15 -28 -21 -53 -18 -81 10 -30
30 -32 64 -4 99 24 30 63 34 91 9z m378 -3 c43 -43 13 -130 -44 -130 -29 0
-66 42 -66 75 0 33 37 75 66 75 13 0 33 -9 44 -20z m159 1 c27 33 38 16 16
-25 -18 -33 -18 -34 4 -62 28 -35 10 -46 -24 -14 l-23 22 -11 -21 c-7 -12 -18
-21 -26 -21 -20 0 -19 6 6 41 l20 29 -20 29 c-25 35 -15 49 15 20 l23 -22 20
24z m341 9 c13 -8 12 -10 -1 -15 -9 -3 -20 -5 -25 -4 -23 4 -35 -3 -45 -25
-17 -37 3 -66 46 -66 41 0 47 -17 9 -26 -54 -14 -102 36 -88 92 11 44 67 68
104 44z m166 2 c16 -11 34 -48 34 -72 0 -27 -43 -70 -70 -70 -32 0 -60 35 -60
75 0 55 56 94 96 67z m272 -4 c19 -16 16 -128 -3 -128 -11 0 -15 13 -15 54 0
35 -5 56 -12 59 -28 9 -38 -6 -38 -59 0 -41 -4 -54 -15 -54 -12 0 -15 13 -15
56 0 52 -1 55 -22 52 -20 -3 -23 -10 -26 -55 -2 -38 -7 -53 -18 -53 -11 0 -14
15 -14 63 0 35 2 66 4 68 10 9 162 6 174 -3z m502 2 c0 -6 -11 -15 -25 -20
-22 -8 -25 -15 -25 -60 0 -38 -4 -50 -15 -50 -12 0 -15 14 -15 63 0 35 2 66 4
68 10 9 76 8 76 -1z m-1130 -114 c0 -8 -5 -18 -11 -22 -14 -8 -33 11 -25 25
10 16 36 13 36 -3z m765 -6 c0 -8 -8 -16 -17 -18 -13 -2 -18 3 -18 18 0 15 5
20 18 18 9 -2 17 -10 17 -18z"/>
<path d="M1277 3764 c-4 -4 -7 -58 -7 -121 0 -129 1 -130 75 -118 62 9 80 38
80 127 0 84 -17 105 -91 113 -27 3 -53 3 -57 -1z"/>
<path d="M1269 3438 c-1 -21 -1 -242 0 -255 1 -9 20 -13 61 -13 70 0 95 18
106 75 11 58 0 143 -23 173 -17 23 -28 27 -82 30 -45 2 -61 -1 -62 -10z"/>
<path d="M2306 3761 c-4 -6 -9 -165 -7 -225 1 -16 7 -18 58 -14 78 7 93 27 93
123 0 93 -14 113 -87 119 -29 3 -55 1 -57 -3z"/>
<path d="M2297 3357 c-3 -50 -3 -114 0 -141 l6 -48 64 4 c91 6 98 16 98 134 0
92 -1 97 -28 120 -22 19 -40 24 -81 24 l-53 0 -6 -93z"/>
<path d="M2816 3763 c-9 -10 -7 -216 3 -232 15 -23 102 -9 131 20 51 51 23
202 -39 213 -36 6 -88 6 -95 -1z"/>
<path d="M2815 3438 c-3 -8 -4 -70 -3 -139 l3 -124 62 0 c92 0 103 14 103 129
-1 120 -13 138 -99 144 -46 3 -62 1 -66 -10z"/>
<path d="M1380 2511 l0 -201 68 0 c75 0 124 19 154 60 25 34 34 176 16 244
-19 72 -49 90 -154 95 l-84 3 0 -201z"/>
<path d="M1380 1909 l0 -231 94 4 c156 5 180 39 174 245 -3 104 -7 127 -24
150 -33 46 -79 63 -166 63 l-78 0 0 -231z"/>
<path d="M2492 2454 c-155 -77 -185 -271 -60 -391 45 -44 100 -65 169 -64 101
0 179 51 219 143 26 60 24 151 -4 205 -60 117 -207 165 -324 107z"/>
<path d="M3790 1134 c0 -44 1 -45 27 -42 30 3 39 23 29 64 -5 17 -13 24 -31
24 -23 0 -25 -4 -25 -46z"/>
<path d="M1273 1183 c-8 -3 -13 -23 -13 -49 0 -44 1 -45 28 -42 23 3 27 8 30
40 3 38 -17 61 -45 51z"/>
<path d="M1653 1183 c-8 -3 -13 -23 -13 -49 0 -44 1 -45 28 -42 23 3 27 8 30
40 3 38 -17 61 -45 51z"/>
<path d="M1843 1183 c-8 -3 -13 -23 -13 -49 0 -44 1 -45 28 -42 23 3 27 8 30
40 3 38 -17 61 -45 51z"/>
<path d="M2343 1183 c-8 -3 -13 -23 -13 -49 0 -40 2 -44 25 -44 42 0 55 69 16
89 -9 5 -22 6 -28 4z"/>
<path d="M2140 1165 c0 -10 10 -15 30 -15 20 0 30 5 30 15 0 10 -10 15 -30 15
-20 0 -30 -5 -30 -15z"/>
<path d="M2514 1156 c-9 -38 4 -66 31 -66 18 0 26 7 31 24 10 41 1 61 -28 64
-22 3 -29 -2 -34 -22z"/>
<path d="M3205 1176 c-25 -18 -17 -80 12 -84 26 -4 47 30 39 63 -7 28 -29 38
-51 21z"/>
</g>
</svg>
