<?xml version="1.0" standalone="no"?>
<!DOCTYPE svg PUBLIC "-//W3C//DTD SVG 20010904//EN"
 "http://www.w3.org/TR/2001/REC-SVG-20010904/DTD/svg10.dtd">
<svg version="1.0" xmlns="http://www.w3.org/2000/svg"
 width="400.000000pt" height="400.000000pt" viewBox="0 0 400.000000 400.000000"
 preserveAspectRatio="xMidYMid meet">

<g transform="translate(0.000000,400.000000) scale(0.100000,-0.100000)"
fill="#000000" stroke="none">
<path d="M0 2000 l0 -2000 2000 0 2000 0 0 2000 0 2000 -2000 0 -2000 0 0
-2000z m2265 1462 c296 -64 541 -197 755 -412 421 -420 550 -1021 340 -1583
-25 -67 -16 -69 -154 30 -48 34 -93 63 -100 63 -15 -1 21 -29 125 -99 89 -59
204 -109 364 -157 100 -31 135 -57 135 -103 0 -40 -14 -46 -48 -21 -16 12 -55
25 -93 30 -35 5 -91 18 -123 30 -33 11 -61 18 -64 16 -7 -7 157 -56 189 -56
81 0 129 -53 95 -105 l-17 -26 -33 36 c-30 32 -38 35 -89 35 -51 0 -205 38
-249 61 -18 10 -18 12 9 44 15 18 34 32 41 29 36 -12 45 -13 25 -3 -13 7 -23
16 -23 22 0 12 -164 -143 -168 -159 -2 -6 5 -17 15 -25 16 -13 17 -12 4 4 -16
20 -7 34 40 68 l27 19 94 -31 c53 -18 127 -34 172 -38 60 -5 81 -11 92 -26 28
-38 12 -85 -36 -110 -27 -14 -29 -14 -36 8 -7 20 -9 19 -14 -12 -9 -57 -46
-76 -143 -75 -69 0 -95 6 -162 33 -110 45 -113 46 -90 27 20 -17 20 -17 -3 -6
-12 6 -20 15 -17 20 3 5 -9 17 -27 26 -18 9 -52 30 -75 46 -24 16 -43 27 -43
24 0 -3 27 -24 60 -46 33 -22 60 -43 60 -46 0 -3 -5 -2 -10 1 -6 4 -51 -32
-101 -79 -95 -91 -164 -140 -95 -68 22 23 43 39 48 36 13 -8 11 -4 -36 87 -24
46 -58 130 -76 186 l-34 102 37 78 c23 51 38 101 43 143 10 93 17 106 73 134
90 46 138 110 191 254 27 75 70 125 102 120 59 -8 83 -153 41 -249 -26 -57
-76 -115 -122 -139 -20 -11 -31 -19 -25 -20 20 0 102 58 127 92 41 53 57 102
57 170 0 78 -28 144 -65 158 -47 18 -91 -23 -131 -121 -62 -152 -119 -230
-193 -264 -45 -20 -52 -35 -71 -150 -9 -54 -43 -145 -76 -203 -2 -2 -71 49
-156 114 -84 65 -155 119 -157 121 -2 1 25 33 60 70 87 93 130 176 137 264 5
79 -10 131 -62 213 -39 61 -38 73 4 111 29 26 60 88 60 120 0 29 -32 65 -58
65 -35 0 -31 13 19 73 100 119 116 196 66 299 -52 106 -214 230 -375 286 l-33
11 35 49 c72 100 95 194 60 247 -20 30 -82 55 -138 55 -145 0 -476 -107 -686
-222 -209 -114 -434 -295 -607 -488 l-85 -95 6 -58 c4 -38 20 -90 46 -144 22
-48 38 -88 36 -90 -2 -3 -37 -11 -77 -20 -124 -25 -200 -76 -233 -155 -21 -50
-20 -85 5 -162 l21 -65 -23 -56 c-13 -32 -36 -69 -52 -85 l-28 -27 53 -23 c37
-16 77 -24 132 -26 l78 -3 57 -54 c31 -29 67 -59 80 -67 21 -11 22 -14 10 -24
-29 -22 5 -101 46 -107 6 0 -1 -5 -15 -9 -16 -5 9 -8 73 -9 103 -1 105 0 69
42 -8 9 -28 17 -43 17 -31 0 -49 23 -49 64 0 15 -7 26 -17 29 -14 4 -12 5 5 6
12 0 22 -3 22 -9 0 -5 5 -10 10 -10 6 0 10 6 10 13 0 8 9 22 20 32 12 11 20
28 18 39 -2 16 -10 21 -35 21 -30 0 -33 2 -33 32 0 35 18 83 32 83 4 0 8 -4 8
-9 0 -5 10 -11 23 -13 18 -2 21 -8 19 -33 -4 -40 45 -79 88 -73 27 4 29 1 36
-36 9 -55 5 -129 -8 -141 -7 -7 -8 -4 -4 10 10 34 -9 50 -56 49 -37 -1 -40 0
-18 8 13 5 32 16 42 24 18 17 14 44 -7 44 -7 0 -20 11 -29 25 -20 31 -33 32
-41 4 -4 -12 -16 -30 -27 -41 -19 -19 -19 -19 5 -44 16 -16 23 -32 20 -45 -4
-13 1 -25 16 -35 11 -8 21 -22 21 -30 0 -41 99 13 115 63 6 19 28 45 52 62
l41 30 25 -36 26 -36 -127 -62 c-70 -34 -165 -83 -211 -109 -46 -27 -140 -79
-208 -117 l-124 -68 -50 77 c-102 155 -180 356 -215 547 -26 148 -24 385 4
532 60 305 193 555 412 773 247 248 511 377 885 434 73 11 372 -3 460 -22z
m73 -142 c100 -61 57 -168 -172 -426 -66 -75 -138 -146 -167 -165 -28 -18
-148 -69 -267 -114 l-217 -81 -6 -95 c-7 -117 -34 -179 -77 -179 -15 0 -44 -3
-64 -6 l-38 -7 0 89 c0 304 108 588 294 777 72 74 83 80 221 132 235 88 424
117 493 75z m-811 -263 c-7 -11 -24 -21 -37 -22 -13 -1 -26 -7 -28 -13 -2 -7
-16 -12 -30 -12 -24 0 -20 5 32 39 62 41 87 44 63 8z m-140 -69 c-8 -23 13
-49 33 -43 10 3 21 1 25 -5 4 -6 -6 -10 -24 -10 -16 0 -32 4 -36 10 -14 23
-30 -3 -31 -50 0 -46 5 -55 29 -51 10 1 9 -5 -5 -50 -6 -22 -16 -39 -22 -39
-20 0 -106 -44 -111 -58 -3 -7 7 -17 23 -23 52 -21 57 -26 60 -60 2 -19 0 -31
-4 -27 -4 4 -7 20 -8 35 -1 22 -7 28 -35 35 -48 13 -56 6 -58 -44 -2 -46 3
-55 54 -96 12 -9 24 -33 28 -52 6 -33 5 -34 -10 -15 -18 23 -37 15 -63 -27
-16 -26 -15 -28 6 -48 27 -25 28 -44 4 -75 -17 -21 -20 -22 -34 -8 -13 12 -20
13 -38 3 -12 -6 -24 -9 -27 -6 -3 3 6 10 19 15 23 9 25 14 19 43 -6 27 -12 33
-33 33 -14 0 -30 3 -34 8 -4 4 -14 7 -22 7 -11 0 -13 -8 -9 -34 3 -18 1 -38
-5 -44 -15 -15 0 -32 28 -32 l25 0 -20 -26 c-12 -15 -21 -33 -21 -41 0 -11 -5
-11 -31 2 -23 12 -29 21 -23 33 4 9 6 28 5 42 -1 14 -1 47 -1 74 1 40 -4 54
-26 78 -35 36 -55 35 -77 -3 -16 -30 -16 -32 3 -56 11 -14 20 -35 20 -47 -1
-20 -1 -20 -15 -2 -8 10 -12 23 -9 27 3 5 1 9 -4 9 -18 0 -24 51 -7 69 24 28
19 51 -11 51 -25 0 -26 2 -21 37 9 52 20 59 50 29 14 -14 30 -26 36 -26 5 0
13 -13 19 -28 7 -19 20 -31 43 -38 45 -13 63 -8 80 22 19 37 -5 78 -49 82 -20
2 -38 12 -47 26 -17 26 -11 56 12 56 8 0 12 4 9 9 -3 5 3 19 13 33 11 13 21
35 23 48 4 30 38 39 58 15 12 -15 61 -21 73 -9 3 4 0 16 -8 28 -22 30 -18 70
8 92 22 19 22 19 5 -2 -10 -11 -18 -30 -18 -42 0 -30 36 -64 63 -60 27 4 70
66 60 87 -4 9 -7 34 -6 56 1 32 8 45 34 67 37 31 43 34 36 16z m975 -23 c148
-60 276 -166 323 -268 45 -96 28 -169 -64 -269 -49 -54 -54 -57 -74 -44 -12 8
-37 17 -54 21 -37 7 -40 17 -18 59 14 27 14 31 -11 63 -85 112 -222 233 -304
269 -22 10 -40 20 -40 24 0 13 153 170 166 170 8 0 42 -11 76 -25z m-162 -202
c46 -27 224 -197 253 -244 16 -23 16 -28 1 -66 -14 -36 -21 -42 -57 -47 -23
-4 -60 -15 -83 -25 l-42 -19 -11 24 c-6 13 -15 24 -20 24 -14 0 -23 -36 -16
-60 4 -11 2 -20 -4 -20 -5 0 -13 15 -16 33 -7 34 7 81 31 108 9 10 11 19 5 23
-5 3 -19 -6 -31 -21 -20 -25 -22 -36 -17 -96 5 -58 3 -72 -16 -102 -26 -41
-59 -46 -75 -11 -21 47 -130 106 -196 106 -15 0 -26 7 -29 20 -7 26 -34 26
-42 -1 -5 -15 -10 -18 -18 -10 -13 13 6 83 28 101 19 16 19 30 1 30 -22 0 -49
-51 -50 -96 -1 -41 -2 -42 -40 -48 -21 -4 -51 -13 -67 -21 -15 -8 -39 -15 -53
-15 -19 0 -23 -4 -19 -19 3 -10 -1 -23 -9 -27 -11 -7 -128 -23 -128 -18 0 1 9
21 20 45 14 33 20 66 20 129 l0 86 163 58 c194 69 304 121 372 175 57 46 71
46 145 4z m-1183 -99 c-3 -3 -12 -4 -19 -1 -8 3 -5 6 6 6 11 1 17 -2 13 -5z
m1416 -328 c3 -29 15 -73 27 -96 24 -48 24 -49 -47 -76 -42 -16 -42 -16 -65
10 -25 30 -86 41 -140 25 -21 -6 -30 -4 -34 6 -8 20 26 87 42 81 8 -3 11 0 8
8 -3 7 1 13 9 13 8 0 14 -7 13 -15 0 -8 5 -17 12 -19 8 -3 12 7 12 31 0 25 6
38 19 46 17 8 112 37 132 39 3 1 9 -23 12 -53z m84 39 l37 -15 -39 -40 c-22
-22 -43 -36 -47 -32 -4 4 -11 29 -14 55 -8 54 0 58 63 32z m-699 -67 c6 -17
10 -33 9 -34 -5 -5 -117 41 -117 48 0 7 30 14 70 17 20 1 28 -6 38 -31z m28
-5 c5 -23 15 -38 24 -38 10 0 16 12 18 38 4 43 13 46 92 20 102 -33 142 -106
83 -152 -76 -60 -255 -67 -361 -15 -70 35 -92 72 -68 110 20 29 66 32 141 9
67 -20 72 -13 48 53 -3 6 -1 12 4 12 5 0 14 -17 19 -37z m719 -12 c-8 -25 -53
-81 -66 -81 -4 0 -13 9 -19 21 -14 25 8 54 55 75 35 15 39 13 30 -15z m80 8
c13 -39 -5 -87 -48 -135 l-43 -47 -22 35 -22 35 36 38 c19 21 38 50 41 66 7
36 48 41 58 8z m-1407 -69 c22 -16 51 -43 63 -59 21 -28 23 -29 49 -16 15 8
41 25 56 38 25 21 42 25 112 28 53 3 82 0 82 -6 0 -20 64 -74 115 -97 65 -29
228 -32 288 -5 l38 16 -21 -28 c-21 -30 -26 -56 -12 -65 4 -2 9 7 10 22 4 63
122 124 242 125 65 0 80 -6 80 -34 0 -27 -47 -68 -125 -108 -36 -19 -65 -35
-65 -37 0 -8 101 35 145 60 24 15 49 35 54 45 6 9 29 23 53 30 24 7 53 19 66
28 28 17 22 23 112 -109 61 -91 80 -137 80 -200 0 -95 -71 -218 -194 -336 -94
-90 -219 -186 -271 -208 -41 -17 -45 -23 -10 -16 17 3 25 0 25 -10 0 -38 -120
-199 -270 -363 -30 -33 -74 -82 -96 -108 l-42 -47 -75 70 c-123 115 -178 216
-178 326 0 61 32 164 52 164 12 0 39 -42 39 -62 0 -9 4 -19 9 -22 5 -4 5 10 0
32 -5 20 -9 40 -9 43 0 4 -40 39 -89 77 -50 39 -107 93 -128 120 l-39 48 -44
-32 c-53 -39 -57 -36 -66 63 -6 59 -3 77 16 119 l22 49 14 -58 c8 -32 19 -66
25 -75 9 -15 10 -14 4 3 -24 72 -28 129 -18 222 6 54 9 100 7 102 -1 1 -13 -4
-26 -13 -53 -38 -117 -10 -161 72 -50 92 -65 191 -34 230 17 22 72 14 115 -18z
m-207 -26 c27 -20 49 -39 49 -43 0 -4 -14 -18 -31 -30 -23 -17 -30 -29 -27
-46 5 -22 4 -22 -28 -9 -40 17 -112 18 -151 3 -41 -15 -70 -46 -116 -123 l-41
-69 -14 34 c-9 21 -13 57 -10 96 3 51 9 69 35 100 35 44 97 78 186 104 86 24
93 24 148 -17z m379 11 c0 -6 -62 -45 -72 -45 -5 0 -8 11 -8 25 0 23 4 25 40
25 22 0 40 -2 40 -5z m745 -15 c3 -5 -12 -18 -34 -30 l-40 -20 17 30 c17 29
45 39 57 20z m-1045 -110 c0 -4 10 -30 22 -57 11 -26 23 -59 25 -73 l3 -25
-14 25 c-8 14 -13 27 -11 31 2 3 -18 19 -45 35 l-49 29 26 27 c24 25 43 29 43
8z m-164 -34 c-9 -36 9 -73 44 -91 18 -9 30 -23 30 -36 0 -32 71 -53 115 -34
19 9 19 8 4 -15 -9 -13 -29 -27 -44 -32 -23 -6 -33 -2 -59 22 -38 38 -47 37
-75 -1 l-23 -31 23 -24 c19 -20 20 -26 8 -41 -34 -43 -45 -49 -40 -20 3 16
-75 -41 -86 -64 -13 -25 -38 -36 -86 -38 l-27 -1 25 40 c23 37 24 43 11 62
-11 15 -12 27 -5 45 14 37 11 52 -16 79 -33 33 -24 44 25 32 34 -9 44 -8 60 7
27 25 25 61 -5 89 -13 13 -22 26 -19 29 8 8 49 -42 58 -70 8 -25 28 -30 44
-10 5 6 13 33 17 59 7 44 5 49 -16 57 -22 9 -22 10 10 10 30 1 33 -1 27 -23z
m139 -36 l30 -20 -25 0 c-25 0 -50 16 -50 32 0 13 13 9 45 -12z m139 -96 c15
-6 15 -8 -1 -20 -24 -18 -53 -18 -53 0 0 21 27 31 54 20z m100 -21 c4 -9 2
-21 -4 -27 -7 -7 -10 -6 -10 2 0 22 -30 12 -42 -13 -6 -14 -15 -25 -20 -25
-15 0 -8 -29 10 -39 14 -9 12 -10 -14 -11 -16 0 -39 7 -50 15 -10 8 -14 15 -7
15 6 0 15 -4 18 -10 10 -16 25 -11 25 9 0 10 7 24 15 31 8 7 15 23 15 35 0 33
53 48 64 18z m-174 -83 c0 -10 5 -22 10 -25 20 -12 9 -25 -21 -25 -20 0 -40
-10 -60 -29 -25 -26 -29 -37 -29 -85 0 -60 -25 -136 -44 -136 -6 0 -23 7 -36
16 -31 21 -120 106 -120 115 0 4 14 12 31 20 18 7 60 41 93 76 43 44 77 69
112 82 54 20 64 19 64 -9z m-474 -56 c-3 -8 -10 -14 -16 -14 -7 0 -8 5 -3 13
4 6 8 15 9 20 1 4 3 13 4 20 1 6 4 4 7 -6 3 -10 2 -25 -1 -33z m554 2 c0 -2
-7 -6 -15 -10 -8 -3 -15 -1 -15 4 0 6 7 10 15 10 8 0 15 -2 15 -4z m50 -16 c0
-10 -7 -23 -16 -28 -13 -7 -16 -19 -11 -52 4 -31 2 -39 -6 -31 -6 6 -11 27
-10 47 1 43 -17 53 -55 29 -15 -10 -21 -12 -15 -5 13 14 92 58 106 59 4 1 7
-8 7 -19z m-628 -45 c5 -40 -8 -48 -18 -11 -5 22 0 46 10 46 2 0 6 -16 8 -35z
m1798 -269 c0 -3 -4 -8 -10 -11 -5 -3 -10 -1 -10 4 0 6 5 11 10 11 6 0 10 -2
10 -4z m190 -126 c0 -5 -6 -12 -12 -16 -7 -4 -10 -4 -6 1 4 4 3 14 -4 22 -8
11 -7 12 6 7 9 -3 16 -10 16 -14z m-1146 1 c4 -5 -3 -7 -14 -4 -23 6 -26 13
-6 13 8 0 17 -4 20 -9z m837 -28 c13 -16 12 -17 -3 -4 -10 7 -18 15 -18 17 0
8 8 3 21 -13z m146 -27 c0 -8 -6 -12 -15 -9 -11 5 -11 7 0 14 7 5 13 9 14 9 0
0 1 -6 1 -14z m-1376 -59 c-10 -9 -11 -8 -5 6 3 10 9 15 12 12 3 -3 0 -11 -7
-18z m339 -7 c0 -5 -5 -10 -11 -10 -5 0 -7 5 -4 10 3 6 8 10 11 10 2 0 4 -4 4
-10z m-303 -16 c-3 -3 -12 -4 -19 -1 -8 3 -5 6 6 6 11 1 17 -2 13 -5z m1201
-29 c-3 -3 -9 2 -12 12 -6 14 -5 15 5 6 7 -7 10 -15 7 -18z m-1211 9 c-3 -3
-12 -4 -19 -1 -8 3 -5 6 6 6 11 1 17 -2 13 -5z m1198 -54 c3 -5 -1 -10 -10
-10 -9 0 -13 5 -10 10 3 6 8 10 10 10 2 0 7 -4 10 -10z m-1465 -70 c6 -11 9
-20 7 -20 -2 0 -12 9 -22 20 -10 11 -13 20 -7 20 6 0 16 -9 22 -20z m1527 -12
c-3 -7 -5 -2 -5 12 0 14 2 19 5 13 2 -7 2 -19 0 -25z m-1282 12 c3 -6 -1 -7
-9 -4 -18 7 -21 14 -7 14 6 0 13 -4 16 -10z m1582 -22 c-3 -7 -5 -2 -5 12 0
14 2 19 5 13 2 -7 2 -19 0 -25z m-204 -5 c-7 -2 -19 -2 -25 0 -7 3 -2 5 12 5
14 0 19 -2 13 -5z m-1566 -29 c-3 -3 -12 -4 -19 -1 -8 3 -5 6 6 6 11 1 17 -2
13 -5z m38 -44 c3 -6 11 -10 16 -10 6 0 7 5 3 12 -4 7 -3 8 4 4 6 -4 9 -13 5
-21 -3 -8 0 -15 5 -15 6 0 12 6 15 13 2 6 3 3 1 -7 -2 -11 2 -27 9 -35 7 -9
-12 4 -40 27 -59 49 -77 70 -45 53 12 -6 24 -16 27 -21z m1158 -17 c-7 -2 -21
-2 -30 0 -10 3 -4 5 12 5 17 0 24 -2 18 -5z m82 -21 c-3 -3 -11 0 -18 7 -9 10
-8 11 6 5 10 -3 15 -9 12 -12z m506 -10 c-13 -2 -27 0 -32 5 -6 6 3 7 23 4 28
-4 29 -6 9 -9z m94 -20 c-3 -3 -11 0 -18 7 -9 10 -8 11 6 5 10 -3 15 -9 12
-12z m-1707 -38 c6 3 13 -1 16 -10 4 -9 13 -14 22 -10 8 3 13 2 10 -2 -6 -10
30 -43 38 -35 3 4 6 -1 6 -11 0 -13 -12 -9 -58 23 -32 21 -64 47 -72 57 -14
19 -14 19 7 1 12 -11 26 -16 31 -13z m1413 3 c-10 -9 -11 -8 -5 6 3 10 9 15
12 12 3 -3 0 -11 -7 -18z m-1061 -33 c0 -8 -19 -13 -24 -6 -3 5 1 9 9 9 8 0
15 -2 15 -3z m308 -19 c-3 -3 -9 2 -12 12 -6 14 -5 15 5 6 7 -7 10 -15 7 -18z
m1032 -19 c0 -3 -4 -8 -10 -11 -5 -3 -10 -1 -10 4 0 6 5 11 10 11 6 0 10 -2
10 -4z m-1266 -15 c4 -5 -3 -7 -14 -4 -23 6 -26 13 -6 13 8 0 17 -4 20 -9z
m-221 -46 c73 -37 96 -62 32 -34 -73 32 -116 60 -109 71 4 6 9 6 13 2 3 -5 32
-23 64 -39z m284 29 c-3 -3 -12 -4 -19 -1 -8 3 -5 6 6 6 11 1 17 -2 13 -5z
m373 -19 c0 -2 -9 -3 -19 -2 -11 0 -18 5 -15 9 4 6 34 0 34 -7z m736 -10 c-23
-17 -36 -19 -36 -6 0 11 18 19 40 20 11 0 10 -3 -4 -14z m-316 -29 c0 -2 -8
-10 -17 -17 -16 -13 -17 -12 -4 4 13 16 21 21 21 13z m154 -32 c3 -8 -15 -20
-51 -34 -67 -25 -83 -20 -18 6 25 11 43 24 41 30 -2 6 2 11 10 11 7 0 15 -6
18 -13z m46 6 c-8 -5 -19 -10 -25 -10 -5 0 -3 5 5 10 8 5 20 10 25 10 6 0 3
-5 -5 -10z m-1135 -10 c4 -6 9 -8 13 -6 4 2 13 -3 21 -11 12 -13 11 -14 -10
-8 -69 22 -88 35 -50 35 11 0 23 -5 26 -10z m310 -30 c3 -6 -1 -7 -9 -4 -18 7
-21 14 -7 14 6 0 13 -4 16 -10z m280 -9 c-9 -8 -36 -10 -30 -2 2 4 11 8 20 8
8 0 13 -3 10 -6z m335 -17 c0 -8 -6 -14 -12 -14 -7 0 -24 -3 -37 -7 -18 -4
-22 -2 -19 8 3 8 10 15 16 15 7 1 19 2 28 3 9 0 12 6 8 13 -4 7 -3 8 4 4 7 -4
12 -14 12 -22z m-300 12 c0 -3 -4 -8 -10 -11 -5 -3 -10 -1 -10 4 0 6 5 11 10
11 6 0 10 -2 10 -4z m-321 -35 c-6 -2 -18 4 -27 13 -15 15 -15 15 10 4 15 -7
23 -15 17 -17z m658 23 c-3 -3 -12 -4 -19 -1 -8 3 -5 6 6 6 11 1 17 -2 13 -5z
m-790 -10 c-3 -3 -12 -4 -19 -1 -8 3 -5 6 6 6 11 1 17 -2 13 -5z m478 -44 c-4
-6 -49 -9 -108 -8 l-102 2 105 6 c58 3 106 7 108 8 2 1 0 -2 -3 -8z"/>
<path d="M1114 1678 l-19 -23 23 19 c21 18 27 26 19 26 -2 0 -12 -10 -23 -22z"/>
<path d="M3075 1570 c-8 -13 15 -13 35 0 12 8 11 10 -7 10 -12 0 -25 -4 -28
-10z"/>
<path d="M870 1458 l-65 -21 50 -23 c28 -12 66 -25 85 -27 19 -2 27 -2 17 0
-11 3 -16 11 -13 21 24 82 26 81 -74 50z m4 -34 c5 -14 4 -15 -9 -4 -17 14
-19 20 -6 20 5 0 12 -7 15 -16z"/>
<path d="M2930 1390 c-11 -7 -6 -8 17 -4 61 12 125 -28 181 -112 7 -10 6 -5
-2 11 -39 81 -145 138 -196 105z"/>
<path d="M3140 1241 c0 -6 4 -13 10 -16 6 -3 7 1 4 9 -7 18 -14 21 -14 7z"/>
<path d="M3227 1089 c7 -7 15 -10 18 -7 3 3 -2 9 -12 12 -14 6 -15 5 -6 -5z"/>
<path d="M3277 1070 c13 -5 46 -12 75 -14 52 -6 52 -5 -12 9 -75 16 -94 18
-63 5z"/>
<path d="M3428 1043 c12 -2 30 -2 40 0 9 3 -1 5 -23 4 -22 0 -30 -2 -17 -4z"/>
<path d="M3490 1036 c0 -2 9 -6 20 -9 11 -3 18 -1 14 4 -5 9 -34 13 -34 5z"/>
<path d="M1103 2733 c-3 -10 -15 -28 -26 -40 -19 -22 -19 -22 1 -48 12 -14 18
-33 15 -41 -3 -8 6 -25 21 -39 14 -13 26 -33 26 -44 0 -55 55 -16 65 46 6 36
4 43 -15 53 -12 6 -36 9 -53 6 -32 -5 -32 -5 5 10 49 21 64 64 22 64 -8 0 -19
11 -24 25 -11 29 -28 33 -37 8z"/>
<path d="M1180 2470 c-8 -4 -28 -13 -43 -19 -40 -16 -35 -55 8 -59 17 -2 34
-8 40 -13 14 -14 25 -11 25 9 0 9 7 26 15 36 23 30 19 56 -7 55 -13 0 -30 -4
-38 -9z"/>
<path d="M1765 2591 c-16 -4 -46 -16 -65 -25 -19 -9 -26 -14 -15 -10 82 24
156 23 226 -1 31 -11 38 -11 42 -1 11 29 -122 55 -188 37z"/>
<path d="M2245 2572 c-42 -14 -60 -30 -49 -42 8 -8 19 -8 38 0 42 15 96 12
145 -11 44 -19 44 -19 27 0 -35 39 -120 67 -161 53z"/>
<path d="M2313 2270 c-24 -10 -43 -22 -43 -25 0 -3 10 0 23 7 12 6 45 17 72
24 39 10 44 12 20 13 -16 0 -49 -8 -72 -19z"/>
<path d="M1215 2087 c34 -34 65 -69 67 -77 3 -8 9 -12 13 -8 11 10 -40 92 -70
112 -66 43 -70 32 -10 -27z"/>
<path d="M2100 1851 c36 -5 46 -10 48 -28 2 -15 -3 -23 -18 -28 -12 -4 -19 -9
-17 -12 10 -10 47 18 47 35 0 29 -21 42 -64 40 l-41 -1 45 -6z"/>
<path d="M2028 1843 c7 -3 16 -2 19 1 4 3 -2 6 -13 5 -11 0 -14 -3 -6 -6z"/>
<path d="M2203 1837 c20 -8 45 -21 55 -28 12 -9 11 -6 -3 9 -11 12 -36 24 -55
27 l-35 6 38 -14z"/>
<path d="M1950 1830 c-20 -6 -21 -8 -5 -8 11 0 29 3 40 8 25 11 -1 11 -35 0z"/>
<path d="M1798 1819 c-10 -5 -18 -20 -18 -32 0 -22 1 -22 21 3 14 17 22 21 26
13 2 -7 13 -23 24 -35 19 -22 19 -22 0 11 -11 19 -18 38 -15 43 7 11 -17 10
-38 -3z"/>
<path d="M1888 1813 c6 -2 18 -2 25 0 6 3 1 5 -13 5 -14 0 -19 -2 -12 -5z"/>
<path d="M1997 1748 c-18 -31 -18 -33 0 -46 22 -16 62 -27 70 -19 9 10 -23 92
-38 95 -8 1 -22 -12 -32 -30z"/>
<path d="M2070 1763 c0 -10 5 -25 11 -33 8 -12 9 -10 4 9 -5 15 -2 27 6 32 11
7 10 9 -3 9 -11 0 -18 -7 -18 -17z"/>
<path d="M1897 1705 c17 -22 46 -53 64 -70 20 -17 13 -7 -15 25 -69 77 -85 92
-49 45z"/>
<path d="M2096 1685 c8 -37 14 -45 14 -19 0 10 -5 26 -10 34 -8 11 -9 7 -4
-15z"/>
<path d="M2111 1620 c-1 -15 -6 -31 -13 -38 -9 -9 -9 -12 0 -12 13 0 26 43 19
62 -3 7 -6 2 -6 -12z"/>
<path d="M2019 1591 c13 -12 28 -21 34 -21 12 0 11 0 -28 24 l-30 17 24 -20z"/>
<path d="M2112 1419 c-20 -58 -43 -72 -102 -67 -27 3 -73 17 -102 32 -45 22
-49 23 -28 5 30 -26 105 -64 143 -73 17 -4 27 -13 27 -24 -1 -28 -27 -92 -46
-113 -9 -10 -13 -19 -7 -19 12 0 47 38 62 67 6 12 11 38 11 57 0 25 5 36 15
36 22 0 47 56 43 98 l-3 37 -13 -36z"/>
<path d="M905 1911 c-6 -5 -21 -11 -34 -13 -56 -8 -48 -68 10 -68 15 0 31 -5
34 -10 4 -6 11 -8 16 -4 5 3 7 9 4 14 -3 5 3 23 14 41 11 18 18 36 15 41 -7
11 -48 10 -59 -1z"/>
<path d="M805 1797 c4 -22 3 -37 -5 -42 -8 -5 -8 -10 1 -21 15 -18 31 -18 72
2 29 14 34 21 32 45 -3 37 -1 35 -58 43 l-48 7 6 -34z"/>
</g>
</svg>
